<svg xmlns="http://www.w3.org/2000/svg" width="512" height="512" viewBox="0 0 24 24">
  <path fill="#2196f3" d="M12 .75C5.797.75.75 5.797.75 12S5.797 23.25 12 23.25 23.25 18.203 23.25 12 18.203.75 12 .75z"/>
  <path fill="#fff" d="M17.75 9.75h-6.5v-4L4.75 12l6.5 6.25v-4h6.5c.28 0 .5-.22.5-.5v-3.5c0-.28-.22-.5-.5-.5z"/>
  <path d="M11.25 19c-.19 0-.377-.072-.52-.209l-6.5-6.25C4.083 12.399 4 12.204 4 12s.083-.399.23-.541l6.5-6.25c.217-.209.538-.267.814-.149s.456.389.456.69V9h5.75c.689 0 1.25.561 1.25 1.25v3.5c0 .689-.561 1.25-1.25 1.25H12v3.25c0 .301-.18.572-.456.69-.095.04-.195.06-.294.06zm-5.418-7l4.668 4.488V14.25c0-.414.336-.75.75-.75h6.25v-3h-6.25c-.414 0-.75-.336-.75-.75V7.512z"/>
  <path d="M12 24C5.383 24 0 18.617 0 12S5.383 0 12 0s12 5.383 12 12-5.383 12-12 12zm0-22.5C6.21 1.5 1.5 6.21 1.5 12S6.21 22.5 12 22.5 22.5 17.79 22.5 12 17.79 1.5 12 1.5z"/>
</svg>
