<svg xmlns="http://www.w3.org/2000/svg" width="512" height="512" viewBox="0 0 60 60">
  <g fill="none" fill-rule="evenodd">
    <path fill="#3f51b5" d="M17 1v58h-5c-2.76142375 0-5-2.2385763-5-5v-3h3c1.6568542 0 3-1.3431458 3-3s-1.3431458-3-3-3H7v-6h3c1.6568542 0 3-1.3431458 3-3s-1.3431458-3-3-3H7v-6h3c1.6568542 0 3-1.3431458 3-3s-1.3431458-3-3-3H7v-6h3c1.6568542 0 3-1.3431458 3-3s-1.3431458-3-3-3H7V6c0-2.76142375 2.23857625-5 5-5z"/>
    <path fill="#7f8e94" d="M13 12c0 1.6568542-1.3431458 3-3 3H4c-1.65685425 0-3-1.3431458-3-3s1.34314575-3 3-3h6c1.6568542 0 3 1.3431458 3 3zM13 24c0 1.6568542-1.3431458 3-3 3H4c-1.65685425 0-3-1.3431458-3-3s1.34314575-3 3-3h6c1.6568542 0 3 1.3431458 3 3zM13 36c0 1.6568542-1.3431458 3-3 3H4c-1.65685425 0-3-1.3431458-3-3s1.34314575-3 3-3h6c1.6568542 0 3 1.3431458 3 3zM13 48c0 1.6568542-1.3431458 3-3 3H4c-1.65685425 0-3-1.3431458-3-3s1.34314575-3 3-3h6c1.6568542 0 3 1.3431458 3 3z"/>
    <path fill="#02a9f4" d="M53 4v52c0 1.6568542-1.3431458 3-3 3H17V1h33c1.6568542 0 3 1.34314575 3 3z"/>
    <path fill="#0377bc" d="M50 1h-3c1.6568542 0 3 1.34314575 3 3v52c0 1.6568542-1.3431458 3-3 3h3c1.6568542 0 3-1.3431458 3-3V4c0-1.65685425-1.3431458-3-3-3z"/>
    <path fill="#9d27b0" d="M59 7v7l-6 5V5h4c1.1045695 0 2 .8954305 2 2z"/>
    <path fill="#6a1b9a" d="M57 5h-3c1.1045695 0 2 .8954305 2 2v7l-3 2.5V19l6-5V7c0-1.1045695-.8954305-2-2-2z"/>
    <path fill="#e91e63" d="M59 14v9l-6 5v-9z"/>
    <path fill="#ad1457" d="M56 16.5V23l-3 2.5V28l6-5v-9z"/>
    <path fill="#9d27b0" d="M59 23v9l-6 5v-9z"/>
    <path fill="#6a1b9a" d="M56 25.5V32l-3 2.5V37l6-5v-9z"/>
    <path fill="#e91e63" d="M59.0000026 32L59 40.06c.0009661.5948645-.2629198 1.159287-.72 1.54L53 46v-9z"/>
    <path fill="#ad1457" d="M56 34.5v5.56c.0009661.5948645-.2629198 1.159287-.72 1.54L53 43.5V46l5.28-4.4c.4570802-.380713.7209661-.9451355.72-1.54l.0000026-8.06z"/>
    <g fill-rule="nonzero">
      <path fill="#e91e63" d="M35 20.6c-1.6303173-2.2422817-4.2277658-3.5781124-7-3.6-4.14 0-7 3.6-7 7.82 0 5.18 4.36 10.26 13.56 16.06.2717086.1592891.6082914.1592891.88 0C44.64 35.08 49 30 49 24.82 49 20.6 46.14 17 42 17c-2.7722342.0218876-5.3696827 1.3577183-7 3.6z"/>
      <path fill="#f5f5f5" d="M23 6h-2c-.5522847 0-1-.44771525-1-1s.4477153-1 1-1h2c.5522847 0 1 .44771525 1 1s-.4477153 1-1 1zM44 6H27c-.5522847 0-1-.44771525-1-1s.4477153-1 1-1h17c.5522847 0 1 .44771525 1 1s-.4477153 1-1 1z"/>
      <path fill="#000" d="M57 4h-3c0-2.209139-1.790861-4-4-4H12C8.6862915 0 6 2.6862915 6 6v2H4c-2.209139 0-4 1.790861-4 4s1.790861 4 4 4h2v4H4c-2.209139 0-4 1.790861-4 4s1.790861 4 4 4h2v4H4c-2.209139 0-4 1.790861-4 4s1.790861 4 4 4h2v4H4c-2.209139 0-4 1.790861-4 4s1.790861 4 4 4h2v2c0 3.3137085 2.6862915 6 6 6h38c2.209139 0 4-1.790861 4-4v-9.53l4.92-4.1c.6856203-.5710695 1.0814491-1.4177033 1.08-2.31V7c0-1.65685425-1.3431458-3-3-3zm-3 28v-3.53l4-3.34v6.4l-4 3.33zm0-9v-3.53l4-3.34v6.4l-4 3.33zm3-17c.5522847 0 1 .44771525 1 1v6.53l-4 3.33V6zM2 12c0-1.1045695.8954305-2 2-2h6c1.1045695 0 2 .8954305 2 2s-.8954305 2-2 2H4c-1.1045695 0-2-.8954305-2-2zm0 12c0-1.1045695.8954305-2 2-2h6c1.1045695 0 2 .8954305 2 2s-.8954305 2-2 2H4c-1.1045695 0-2-.8954305-2-2zm0 12c0-1.1045695.8954305-2 2-2h6c1.1045695 0 2 .8954305 2 2s-.8954305 2-2 2H4c-1.1045695 0-2-.8954305-2-2zm0 12c0-1.1045695.8954305-2 2-2h6c1.1045695 0 2 .8954305 2 2s-.8954305 2-2 2H4c-1.1045695 0-2-.8954305-2-2zm6 6v-2h2c2.209139 0 4-1.790861 4-4s-1.790861-4-4-4H8v-4h2c2.209139 0 4-1.790861 4-4s-1.790861-4-4-4H8v-4h2c2.209139 0 4-1.790861 4-4s-1.790861-4-4-4H8v-4h2c2.209139 0 4-1.790861 4-4s-1.790861-4-4-4H8V6c0-2.209139 1.790861-4 4-4h4v56h-4c-2.209139 0-4-1.790861-4-4zm44 2c0 1.1045695-.8954305 2-2 2H18V2h32c1.1045695 0 2 .8954305 2 2zm5.64-15.17l-3.64 3v-6.36l4.0000013-3.34L58 40.06c.000483.2974322-.1314599.5796435-.36.77z"/>
      <path fill="#000" d="M29 20c-1.3410933-.0510915-2.6427646.4592672-3.5917487 1.4082513S23.9489085 23.6589067 24 25c0 .5522847.4477153 1 1 1s1-.4477153 1-1c-.0405933-.8074109.2624201-1.5942863.8340669-2.1659331S28.1925891 21.9594067 29 22c.5522847 0 1-.4477153 1-1s-.4477153-1-1-1z"/>
      <path fill="#000" d="M42 16c-2.6464286-.00432-5.1780051 1.0806414-7 3-1.8219949-1.9193586-4.3535714-3.00432-7-3-4.49 0-8 3.87-8 8.82 0 5.5 4.46 10.87 14 16.9.592771.3733766 1.347229.3733766 1.94 0 9.57-6 14-11.4 14-16.9C50 19.87 46.49 16 42 16zm-7 24c-8.87-5.61-13-10.42-13-15.15 0-3.92 2.58-6.85 6-6.85 2.4371824.011667 4.723758 1.1809386 6.16 3.15.1982971.2643961.5095048.42.84.42s.6417029-.1556039.84-.42c1.4426049-1.9615936 3.7251471-3.1288026 6.16-3.15 3.42 0 6 2.93 6 6.82 0 4.73-4.13 9.54-13 15.18z"/>
    </g>
  </g>
</svg>
