<svg xmlns="http://www.w3.org/2000/svg" width="512" height="512">
  <path fill="#f074c5" d="M512 512H408.71l-15-15-15 15H133.29l-15-15-15 15H0c0-43.29 28.7-81.34 70.33-93.24l43.86-12.53 141.81-.14 140.85-.14 44.82 12.81c20.81 5.95 38.4 18.44 50.78 34.85C504.82 470.02 512 490.36 512 512z"/>
  <path fill="#f5169c" d="M512 512H408.71l-15-15-15 15H256V406.09l140.85-.14 44.82 12.81c20.81 5.95 38.4 18.44 50.78 34.85C504.82 470.02 512 490.36 512 512z"/>
  <path fill="#febda6" d="M396.85 405.95c-40.31 35.83-90.56 53.81-140.85 53.96-50.59.15-101.22-17.74-141.81-53.68l68.67-19.62 17-22.62h112.28l17 22.62z"/>
  <path fill="#ffac94" d="M396.85 405.95c-40.31 35.83-90.56 53.81-140.85 53.96v-95.92h56.14l17 22.62z"/>
  <path fill="#f5169c" d="M103.286 469.333h30V512h-30z"/>
  <path fill="#b31072" d="M378.714 469.333h30V512h-30z"/>
  <path fill="#f074c5" d="M37.24 195.113v-30c57.979 0 81.554-37.612 82.529-39.213l25.793 15.32c-1.297 2.2-32.62 53.893-108.322 53.893z"/>
  <path fill="#f5169c" d="M474.762 195.095c-75.702 0-107.025-51.692-108.322-53.893l25.793-15.32c.975 1.601 24.549 39.213 82.529 39.213z"/>
  <path fill="#363331" d="M121.788 125.604c-19.343 3.106-39.852-2.797-54.764-17.709-24.682-24.682-24.682-64.701 0-89.383s64.701-24.682 89.383 0c4.628 4.628 8.388 9.795 11.281 15.299z"/>
  <path fill="#292725" d="M390.211 125.603c19.344 3.106 39.853-2.797 54.765-17.709 24.682-24.682 24.682-64.701 0-89.383s-64.701-24.682-89.383 0c-4.683 4.683-8.478 9.918-11.384 15.496z"/>
  <path fill="#5c5655" d="M392.66 136.66v73.14H119.34v-73.14C119.34 61.18 180.53 0 256 0s136.66 61.18 136.66 136.66z"/>
  <path fill="#363331" d="M392.66 136.66v73.14H256V0c75.47 0 136.66 61.18 136.66 136.66z"/>
  <path fill="#febda6" d="M146.345 193.119h-20.283c-25.684 0-46.506 20.821-46.506 46.506 0 25.684 20.821 46.506 46.506 46.506h38.261z"/>
  <path fill="#ffac94" d="M365.636 193.119h20.283c25.685 0 46.506 20.821 46.506 46.506 0 25.684-20.821 46.506-46.506 46.506h-38.245z"/>
  <path fill="#ffcdc0" d="M365.64 193.12v71c0 7.52-.67 14.88-1.96 22.01L256 302.14l-107.68-16.01c-1.29-7.13-1.96-14.49-1.96-22.01v-71c60.55 0 109.64-49.09 109.64-109.63 0 60.54 49.08 109.63 109.63 109.63z"/>
  <path fill="#febda6" d="M365.64 193.12v71c0 7.52-.67 14.88-1.96 22.01L256 302.14V83.49c0 60.54 49.08 109.63 109.63 109.63z"/>
  <path fill="#edf9ff" d="M256 380.82c-53.48 0-98.02-40.76-107.68-94.69h51.5c12.66 0 24.89-4.52 34.51-12.74L256 254.87l21.67 67.044c9.62 8.22 8.61 58.906-21.67 58.906z"/>
  <path fill="#c0e1f0" d="M363.68 286.13c-4.18 23.4-14.94 44.32-30.15 60.51-19.85 21.12-47.25 34.18-77.53 34.18V254.87l21.67 18.52c9.62 8.22 21.85 12.74 34.51 12.74z"/>
</svg>