<svg xmlns="http://www.w3.org/2000/svg" width="512" height="512" viewBox="0 0 512.002 512.002">
  <path fill="#ff3e3a" d="M448.362 63.64L384.722 0l-74.246 74.247 53.034 137.886z"/>
  <path fill="#cc3245" d="M448.362 63.64L331.69 180.313l106.066 21.213 74.246-74.246z"/>
  <path fill="#373e9f" d="M34.216 406.504L0 512.001l112.284-69.856z"/>
  <path fill="#340d66" d="M.002 512.001l105.497-34.215-14.428-56.854z"/>
  <path fill="#ffe7b5" d="M188.374 366.055L61.095 323.629l-26.879 82.875 35.641 35.641z"/>
  <path fill="#ffd06a" d="M69.857 442.145l35.642 35.641 82.874-26.878-21.213-106.066z"/>
  <path fill="#ff9a27" d="M124.734 387.269l63.639 63.639 249.383-249.382-63.64-63.639-166.169 81.316z"/>
  <path fill="#ffb820" d="M61.070968 323.613844L310.415021 74.269791l63.63 63.63-249.344053 249.344053z"/>
</svg>